<svg width="105" height="20" viewBox="0 0 105 20" fill="none" xmlns="http://www.w3.org/2000/svg">
<path fill-rule="evenodd" clip-rule="evenodd" d="M2.33333 18.4612C1.04467 18.4612 0 17.4165 0 16.1279V8.35007C0 8.32371 0.00131159 8.29765 0.0038734 8.27196H0C0 7.82399 0.177956 7.39436 0.494722 7.07759L5.35008 2.22224C6.26131 1.31101 7.73869 1.31101 8.6499 2.22224L13.5053 7.07761C13.822 7.39437 14 7.82399 14 8.27196H13.9961C13.9987 8.29765 14 8.32371 14 8.35007V16.1279C14 17.4165 12.9554 18.4612 11.6667 18.4612H2.33333ZM7.54997 3.32218L12.4444 8.21666V16.1279C12.4444 16.5574 12.0962 16.9057 11.6667 16.9057H9.33333V13.0168C9.33333 11.7281 8.2887 10.6834 7 10.6834C5.71134 10.6834 4.66667 11.7281 4.66667 13.0168V16.9057H2.33333C1.90378 16.9057 1.55556 16.5574 1.55556 16.1279V8.21671L6.45003 3.32218C6.75376 3.01844 7.24623 3.01844 7.54997 3.32218Z" fill="#D64B58"/>
<path d="M34.2368 16H33.0503V8.36816C33.0503 7.7334 33.0698 7.13281 33.1089 6.56641C33.0063 6.66895 32.8916 6.77637 32.7646 6.88867C32.6377 7.00098 32.0566 7.47705 31.0215 8.31689L30.377 7.48193L33.2114 5.29199H34.2368V16ZM41.6636 9.45947C42.7915 9.45947 43.6777 9.74023 44.3223 10.3018C44.9717 10.8584 45.2964 11.6226 45.2964 12.5942C45.2964 13.7026 44.9424 14.5718 44.2344 15.2017C43.5312 15.8315 42.5596 16.1465 41.3193 16.1465C40.1133 16.1465 39.1929 15.9536 38.5581 15.5679V14.396C38.8999 14.6157 39.3247 14.7891 39.8325 14.916C40.3403 15.0381 40.8408 15.0991 41.334 15.0991C42.1934 15.0991 42.8599 14.8965 43.3335 14.4912C43.812 14.0859 44.0513 13.5 44.0513 12.7334C44.0513 11.2393 43.1357 10.4922 41.3047 10.4922C40.8408 10.4922 40.2207 10.563 39.4443 10.7046L38.8145 10.3018L39.2173 5.29199H44.542V6.4126H40.2573L39.9863 9.62793C40.5479 9.51562 41.1069 9.45947 41.6636 9.45947ZM58.0259 16H50.665V15.0259L56.3486 6.4126H50.8408V5.29199H57.8647V6.26611L52.1812 14.8721H58.0259V16ZM61.1387 16H59.9229V7.97266H61.1387V16ZM59.8203 5.79736C59.8203 5.51904 59.8887 5.31641 60.0254 5.18945C60.1621 5.05762 60.333 4.9917 60.5381 4.9917C60.7334 4.9917 60.9019 5.05762 61.0435 5.18945C61.1851 5.32129 61.2559 5.52393 61.2559 5.79736C61.2559 6.0708 61.1851 6.27588 61.0435 6.4126C60.9019 6.54443 60.7334 6.61035 60.5381 6.61035C60.333 6.61035 60.1621 6.54443 60.0254 6.4126C59.8887 6.27588 59.8203 6.0708 59.8203 5.79736ZM73.9487 16V10.7778C73.9487 10.1382 73.812 9.65967 73.5386 9.34229C73.2651 9.02002 72.8403 8.85889 72.2642 8.85889C71.5073 8.85889 70.9482 9.07617 70.5869 9.51074C70.2256 9.94531 70.0449 10.6143 70.0449 11.5176V16H68.8291V10.7778C68.8291 10.1382 68.6924 9.65967 68.4189 9.34229C68.1455 9.02002 67.7183 8.85889 67.1372 8.85889C66.3755 8.85889 65.8164 9.08838 65.46 9.54736C65.1084 10.0015 64.9326 10.7485 64.9326 11.7886V16H63.7168V7.97266H64.7056L64.9033 9.07129H64.9619C65.1914 8.68066 65.5137 8.37549 65.9287 8.15576C66.3486 7.93604 66.8174 7.82617 67.335 7.82617C68.5898 7.82617 69.4102 8.28027 69.7959 9.18848H69.8545C70.0938 8.76855 70.4404 8.43652 70.8945 8.19238C71.3486 7.94824 71.8662 7.82617 72.4473 7.82617C73.3555 7.82617 74.0342 8.06055 74.4834 8.5293C74.9375 8.99316 75.1646 9.73779 75.1646 10.7632V16H73.9487ZM87.9087 16V10.7778C87.9087 10.1382 87.772 9.65967 87.4985 9.34229C87.2251 9.02002 86.8003 8.85889 86.2241 8.85889C85.4673 8.85889 84.9082 9.07617 84.5469 9.51074C84.1855 9.94531 84.0049 10.6143 84.0049 11.5176V16H82.7891V10.7778C82.7891 10.1382 82.6523 9.65967 82.3789 9.34229C82.1055 9.02002 81.6782 8.85889 81.0972 8.85889C80.3354 8.85889 79.7764 9.08838 79.4199 9.54736C79.0684 10.0015 78.8926 10.7485 78.8926 11.7886V16H77.6768V7.97266H78.6655L78.8633 9.07129H78.9219C79.1514 8.68066 79.4736 8.37549 79.8887 8.15576C80.3086 7.93604 80.7773 7.82617 81.2949 7.82617C82.5498 7.82617 83.3701 8.28027 83.7559 9.18848H83.8145C84.0537 8.76855 84.4004 8.43652 84.8545 8.19238C85.3086 7.94824 85.8262 7.82617 86.4072 7.82617C87.3154 7.82617 87.9941 8.06055 88.4434 8.5293C88.8975 8.99316 89.1245 9.73779 89.1245 10.7632V16H87.9087ZM95.0278 16.1465C93.8413 16.1465 92.9038 15.7852 92.2153 15.0625C91.5317 14.3398 91.1899 13.3364 91.1899 12.0522C91.1899 10.7583 91.5073 9.73047 92.1421 8.96875C92.7817 8.20703 93.6387 7.82617 94.7129 7.82617C95.7188 7.82617 96.5146 8.1582 97.1006 8.82227C97.6865 9.48145 97.9795 10.353 97.9795 11.437V12.2061H92.4497C92.4741 13.1484 92.7109 13.8638 93.1602 14.3521C93.6143 14.8403 94.2515 15.0845 95.0718 15.0845C95.936 15.0845 96.7905 14.9038 97.6353 14.5425V15.6265C97.2056 15.812 96.7979 15.9438 96.4121 16.022C96.0312 16.105 95.5698 16.1465 95.0278 16.1465ZM94.6982 8.84424C94.0537 8.84424 93.5386 9.0542 93.1528 9.47412C92.772 9.89404 92.5474 10.4751 92.479 11.2173H96.6758C96.6758 10.4507 96.5049 9.86475 96.1631 9.45947C95.8213 9.04932 95.333 8.84424 94.6982 8.84424ZM103.722 7.82617C104.078 7.82617 104.398 7.85547 104.681 7.91406L104.513 9.04199C104.181 8.96875 103.888 8.93213 103.634 8.93213C102.984 8.93213 102.428 9.1958 101.964 9.72314C101.505 10.2505 101.275 10.9072 101.275 11.6934V16H100.06V7.97266H101.063L101.202 9.45947H101.261C101.559 8.93701 101.917 8.53418 102.337 8.25098C102.757 7.96777 103.219 7.82617 103.722 7.82617Z" fill="#968989"/>
</svg>
